<svg width="24" height="24" xmlns="http://www.w3.org/2000/svg" fill-rule="evenodd" clip-rule="evenodd"><path d="M20.628 23h-6.59l-.352-1-13.682-.014c-.005-.005-.002-2.925-.004-3.165-.006-1.898-.012-3.538 2.784-4.182l.474-.108c1.504-.34 3.374-.762 3.724-1.533.041-.092.168-.371-.152-.961-1.926-3.548-2.293-6.665-1.035-8.777.856-1.436 2.42-2.26 4.289-2.26 1.854 0 3.407.812 4.26 2.226 1.258 2.086.901 5.214-1.004 8.807-.314.594-.186.873-.144.966.151.329.571.591 1.125.812l1.96-3.548c.106-.172.286-.263.469-.263.428 0 .694.471.469.837l-1.753 3.173h4.03l-1.752-3.173c-.225-.366.041-.837.469-.837.183 0 .363.091.469.263l2.069 3.747h3.249v2.983h-.828c-.083 0-.156.046-.192.119l-2.352 5.888zm2.371-7.99h-10.999v.996c.396.056.716.302.895.67l1.855 5.325h5.199l2.117-5.291c.188-.391.539-.645.933-.703v-.997zm-10.273-1c-.186-.175-.336-.371-.439-.595-.25-.544-.193-1.166.168-1.849 1.734-3.272 2.101-6.05 1.032-7.824-.677-1.124-1.885-1.742-3.403-1.742-1.53 0-2.748.629-3.429 1.772-1.071 1.797-.697 4.563 1.054 7.789.371.681.432 1.303.184 1.849-.555 1.223-2.517 1.667-4.414 2.096l-.471.107c-1.94.447-2.014 1.256-2.007 3.204l-.002 2.183h12.347l-1.35-3.942c-.013-.019-.086-.065-.168-.065h-.829v-2.983h1.727zm3.273 3.029c0-.276-.224-.5-.5-.5s-.5.224-.5.5v3c0 .276.224.5.5.5s.5-.224.5-.5v-3zm2-.074c0-.276-.224-.5-.5-.5s-.5.224-.5.5v3c0 .276.224.5.5.5s.5-.224.5-.5v-3zm1.997 0c0-.276-.224-.5-.5-.5-.275 0-.5.224-.5.5v3c0 .276.225.5.5.5.276 0 .5-.224.5-.5v-3z"/></svg>